Coordinates
version=1
nRows=27
nColumns=38
inDegrees=no

Units are S.I. units (second, meters, Newtons, ...)
If the header above contains a line with 'inDegrees', this indicates whether rotational values are in degrees (yes) or radians (no).

endheader
time	pelvis_tilt	pelvis_list	pelvis_rotation	pelvis_tx	pelvis_ty	pelvis_tz	hip_flexion_r	hip_adduction_r	hip_rotation_r	knee_angle_r	ankle_angle_r	subtalar_angle_r	mtp_angle_r	hip_flexion_l	hip_adduction_l	hip_rotation_l	knee_angle_l	ankle_angle_l	subtalar_angle_l	mtp_angle_l	lumbar_extension	lumbar_bending	lumbar_rotation	arm_flex_r	arm_add_r	arm_rot_r	elbow_flex_r	pro_sup_r	wrist_flex_r	wrist_dev_r	arm_flex_l	arm_add_l	arm_rot_l	elbow_flex_l	pro_sup_l	wrist_flex_l	wrist_dev_l
1.73	2.23578	1.53136	-0.587994	0.75805	1.07506	0.940178	0.571876	-0.157082	-0.129851	1.08528	0.0439446	0	0	-0.0759565	0.0817643	-0.243851	0.0874061	0.130476	0	0	-0.0733344	0.0679279	0.0714148	-0.0498869	-0.332537	0.711414	0.443509	0.872302	0	0	0.107949	-0.140304	0.373469	0.143757	1.5708	0	0
1.74	2.19421	1.52559	-0.542566	0.757204	1.08267	0.940429	0.571509	-0.153389	-0.150343	1.03535	0.0537822	0	0	-0.0905736	0.0761281	-0.238564	0.0801304	0.130869	0	0	-0.077788	0.0743722	0.0692809	-0.0455572	-0.332845	0.71434	0.441941	0.867018	0	0	0.113065	-0.139268	0.378461	0.143653	1.5708	0	0
1.75	2.16138	1.51959	-0.50544	0.756313	1.09032	0.940603	0.568546	-0.149759	-0.174261	0.981648	0.0634354	0	0	-0.103726	0.0697305	-0.235699	0.0760125	0.135916	0	0	-0.082256	0.0811809	0.0668092	-0.0411867	-0.332968	0.716551	0.43992	0.861853	0	0	0.117905	-0.138009	0.382368	0.144008	1.5708	0	0
1.76	2.13627	1.51376	-0.476132	0.755502	1.09804	0.940674	0.563069	-0.145497	-0.200127	0.923873	0.0722787	0	0	-0.115064	0.062966	-0.235237	0.075124	0.142222	0	0	-0.0864938	0.0877706	0.0646724	-0.037033	-0.332591	0.719365	0.436941	0.858094	0	0	0.12257	-0.136951	0.386146	0.145229	1.57016	0	0
1.77	2.10944	1.50835	-0.445161	0.754822	1.1058	0.940576	0.55607	-0.140097	-0.226738	0.86298	0.0799481	0	0	-0.123712	0.0554679	-0.237791	0.0781514	0.150174	0	0	-0.0900101	0.0938999	0.0627657	-0.0330757	-0.331538	0.721163	0.433271	0.854458	0	0	0.127033	-0.136477	0.390961	0.146825	1.56832	0	0
1.78	2.09046	1.50301	-0.422448	0.754287	1.11367	0.940387	0.546937	-0.133259	-0.254246	0.799219	0.0860031	0	0	-0.136366	0.0490783	-0.235705	0.0737396	0.153628	0	0	-0.0935077	0.0996996	0.0613151	-0.0290778	-0.330118	0.722418	0.428828	0.851342	0	0	0.13158	-0.136256	0.397063	0.14801	1.5656	0	0
1.79	2.07139	1.49799	-0.399996	0.753909	1.12155	0.940049	0.536821	-0.125084	-0.282612	0.733468	0.0905285	0	0	-0.147012	0.0422717	-0.236056	0.0729171	0.158065	0	0	-0.0967236	0.105131	0.0602888	-0.0250462	-0.328714	0.724722	0.424345	0.848883	0	0	0.136642	-0.135941	0.403768	0.148272	1.56246	0	0
1.8	2.03794	1.49447	-0.363816	0.753686	1.12944	0.939418	0.528107	-0.116567	-0.311617	0.667199	0.0952019	0	0	-0.152813	0.035531	-0.241472	0.0780157	0.165407	0	0	-0.09805	0.109459	0.0596601	-0.0210939	-0.327215	0.727229	0.419859	0.8458	0	0	0.14171	-0.135765	0.409955	0.147621	1.56005	0	0
1.81	1.99004	1.48984	-0.312381	0.753713	1.13723	0.938587	0.518696	-0.104312	-0.340826	0.598326	0.100202	0	0	-0.144675	0.0217839	-0.263984	0.109926	0.189414	0	0	-0.0985084	0.115035	0.0585209	-0.0170518	-0.325512	0.730775	0.415423	0.841637	0	0	0.146854	-0.136308	0.417045	0.147775	1.55707	0	0
1.82	1.98555	1.48708	-0.309341	0.754098	1.14557	0.937952	0.506883	-0.0908863	-0.363897	0.530727	0.107598	0	0	-0.173035	0.0236178	-0.247883	0.0740174	0.180226	0	0	-0.10106	0.117305	0.0620213	-0.0142257	-0.324484	0.734973	0.412519	0.834361	0	0	0.150088	-0.137741	0.427644	0.15	1.54938	0	0
1.83	1.93069	1.48585	-0.256097	0.754853	1.15372	0.93672	0.499943	-0.0745555	-0.381888	0.463374	0.11426	0	0	-0.176768	0.0183339	-0.257933	0.0781946	0.191002	0	0	-0.0987187	0.11883	0.0653983	-0.0118371	-0.322518	0.738041	0.409335	0.830126	0	0	0.152989	-0.139945	0.436836	0.152118	1.54181	0	0
1.84	1.85019	1.48433	-0.175687	0.75529	1.16218	0.93519	0.4935	-0.0571676	-0.399342	0.395607	0.120136	0	0	-0.176507	0.0118527	-0.269214	0.0863196	0.203365	0	0	-0.0925516	0.12157	0.0667162	-0.0110779	-0.321402	0.739352	0.407188	0.825998	0	0	0.153744	-0.141697	0.444959	0.154865	1.53374	0	0
1.85	1.76939	1.48274	-0.0974798	0.756052	1.17085	0.933564	0.486866	-0.0369129	-0.40651	0.32891	0.123666	0	0	-0.179068	0.00693346	-0.280695	0.0889921	0.212563	0	0	-0.0856574	0.123718	0.07044	-0.0113015	-0.320501	0.73929	0.405964	0.820532	0	0	0.153158	-0.144029	0.454672	0.159596	1.52301	0	0
1.86	1.69889	1.4819	-0.0315312	0.757021	1.17971	0.931922	0.478583	-0.0157453	-0.403236	0.26338	0.122902	0	0	-0.190019	0.00656772	-0.284545	0.0762864	0.21349	0	0	-0.0791879	0.12447	0.0760629	-0.0121515	-0.319985	0.742005	0.405527	0.817524	0	0	0.152346	-0.146301	0.46312	0.164278	1.51273	0	0
1.87	1.63367	1.48105	0.0292123	0.758042	1.18873	0.930226	0.468188	0.00564658	-0.393465	0.198676	0.116143	0	0	-0.201702	0.0065278	-0.288581	0.063387	0.214613	0	0	-0.0725166	0.124739	0.0815673	-0.0135297	-0.319209	0.744547	0.405184	0.815472	0	0	0.151783	-0.148583	0.471576	0.167468	1.50327	0	0
1.88	1.5961	1.46937	0.0598325	0.759042	1.19701	0.92957	0.44146	0.0443486	-0.368505	0.106672	0.0791559	0	0	-0.208929	-0.00645239	-0.303802	0.0627828	0.221602	0	0	-0.0708423	0.138097	0.0899849	-0.0119552	-0.321502	0.744575	0.404517	0.81392	0	0	0.152778	-0.147409	0.4831	0.170611	1.48963	0	0
1.89	1.56328	1.47723	0.0968422	0.759309	1.20768	0.927121	0.440152	0.0438321	-0.373018	0.0876687	0.091287	0	0	-0.225553	0.00170426	-0.300887	0.0494427	0.222429	0	0	-0.0613589	0.127828	0.0858649	-0.0178886	-0.31721	0.744783	0.404139	0.812225	0	0	0.149574	-0.153283	0.487273	0.17279	1.49079	0	0
1.9	1.50057	1.47637	0.160424	0.759508	1.21699	0.925213	0.439978	0.0530581	-0.380495	0.0665033	0.0887372	0	0	-0.216955	-0.00604386	-0.326288	0.0787637	0.244351	0	0	-0.0527675	0.128478	0.084988	-0.0197212	-0.316704	0.746316	0.403463	0.810355	0	0	0.148484	-0.1546	0.488998	0.17388	1.48999	0	0
1.91	1.49271	1.47723	0.167468	0.759239	1.22688	0.923811	0.440035	0.0572531	-0.39652	0.0673631	0.0934246	0	0	-0.251456	0.00359904	-0.299549	0.0304072	0.222166	0	0	-0.0493595	0.129259	0.0857006	-0.0224179	-0.31868	0.748103	0.405017	0.807975	0	0	0.146491	-0.154209	0.490343	0.174547	1.48778	0	0
1.92	1.47696	1.4773	0.186545	0.758731	1.23658	0.922374	0.442915	0.0587748	-0.413871	0.0790241	0.0952432	0	0	-0.254399	-0.000339547	-0.31076	0.0450119	0.232272	0	0	-0.0451698	0.130772	0.0822606	-0.0244584	-0.320019	0.749558	0.405515	0.807452	0	0	0.144683	-0.154066	0.490409	0.175387	1.48666	0	0
1.93	1.46235	1.47766	0.205567	0.757902	1.24644	0.920951	0.449761	0.0555057	-0.435844	0.107318	0.0984314	0	0	-0.263344	-0.00157127	-0.30939	0.0474084	0.23556	0	0	-0.0406829	0.132555	0.0773736	-0.0268972	-0.322215	0.751171	0.406709	0.806526	0	0	0.141697	-0.153572	0.489913	0.17732	1.48471	0	0
1.94	1.45396	1.47944	0.219287	0.756694	1.25652	0.919558	0.459643	0.0453777	-0.46204	0.153073	0.105763	0	0	-0.283906	0.00271533	-0.288373	0.027391	0.225294	0	0	-0.0365993	0.133643	0.071154	-0.0299421	-0.325684	0.752826	0.40982	0.803659	0	0	0.137522	-0.152618	0.489286	0.18018	1.48098	0	0
1.95	1.45795	1.4817	0.222698	0.755304	1.26682	0.918307	0.466067	0.0332423	-0.482994	0.20024	0.112007	0	0	-0.296933	0.00324006	-0.276443	0.0254732	0.22234	0	0	-0.033219	0.134576	0.0627538	-0.0336959	-0.32897	0.752243	0.413737	0.799907	0	0	0.132941	-0.151675	0.488111	0.183066	1.47746	0	0
1.96	1.46351	1.48365	0.224871	0.753892	1.27742	0.917129	0.468654	0.022357	-0.498012	0.24017	0.121136	0	0	-0.313354	0.00421692	-0.257415	0.0172866	0.214703	0	0	-0.0292724	0.136055	0.0537529	-0.0386722	-0.332304	0.750305	0.418329	0.79629	0	0	0.127502	-0.150806	0.486936	0.18651	1.47418	0	0
1.97	1.48039	1.48425	0.217037	0.752692	1.28803	0.916236	0.465758	0.0166186	-0.506133	0.264306	0.134486	0	0	-0.307232	-0.00496225	-0.269543	0.0556409	0.229482	0	0	-0.0263017	0.138836	0.0437309	-0.0436136	-0.334861	0.74929	0.422354	0.795192	0	0	0.122624	-0.150095	0.485163	0.189212	1.47098	0	0
1.98	1.49478	1.48167	0.210439	0.751842	1.29879	0.915508	0.459721	0.0193995	-0.504622	0.270954	0.140207	0	0	-0.307216	-0.0153328	-0.269615	0.080225	0.236168	0	0	-0.0224683	0.144989	0.034985	-0.0489233	-0.337369	0.749176	0.425626	0.796601	0	0	0.117248	-0.149058	0.482803	0.1921	1.46778	0	0
1.99	1.50612	1.4774	0.204367	0.751424	1.30962	0.914957	0.45088	0.0290392	-0.49295	0.263522	0.121096	0	0	-0.305849	-0.027404	-0.271055	0.106325	0.240999	0	0	-0.0186779	0.152907	0.0286769	-0.0541638	-0.339871	0.746679	0.428845	0.79831	0	0	0.111354	-0.147825	0.479015	0.195356	1.46416	0	0
